<?xml version="1.0" encoding="UTF-8"?>
<svg id="Layer_1" data-name="Layer 1" xmlns="http://www.w3.org/2000/svg" version="1.1" viewBox="0 0 172.84 64.77">
  <defs>
    <style>
      .cls-1 {
        fill: #00164e;
        stroke-width: 0px;
      }
    </style>
  </defs>
  <path class="cls-1" d="M45.78,41.04c4.35-7.32-1.26-7.25,1.27-13.4,0,0,.01-.04.01-.08,0-.13-.12-.25-.26-.25-.03,0-.06,0-.09.02-4.95,3.02-5.47,10.2-.94,13.71Z"/>
  <path class="cls-1" d="M42.4,29.25c3.71-5.77-2.09-9.69-3.78-10.75,0,0-.05-.04-.14-.04-.14,0-.26.1-.26.24,0,0,0,.04,0,.04,1.7,7.54-4.55,7-5.27,13.17-2.45-3.57.18-5.71.99-8.42,1.29-4.34-2.49-7.72-3.69-8.3,0,0-.04-.02-.12-.02-.14,0-.25.1-.25.24,0,.04,0,.06,0,.06,1.17,4.57-2.6,7.09-4.47,10.06-2.41,3.82-1.19,8.67-1.19,8.67h0c-1.85-1.17-3.28-4.51-3.28-6.73,0-2.78.98-4.79,1.62-5.97.02-.03.02-.06.02-.09,0-.13-.11-.23-.25-.23-.07,0-.12.03-.17.07-3.11,2.89-5.06,7.06-5.06,11.7,0,2.36.51,4.6,1.41,6.62.38.76.82,1.53,1.33,2.33h23.97c-2.09-2.31-5.29-6.63-1.43-12.64Z"/>
  <path class="cls-1" d="M32.38,9.33c-12.78,0-23.14,10.35-23.14,23.12s10.36,23.14,23.14,23.14,23.14-10.36,23.14-23.14-10.36-23.12-23.14-23.12ZM32.38,52.62c-11.14,0-20.18-9.03-20.18-20.17s9.03-20.16,20.18-20.16,20.17,9.03,20.17,20.16-9.03,20.17-20.17,20.17Z"/>
  <path class="cls-1" d="M25.33,46.91h14.43c1.44-.78,2.75-1.8,3.88-3h-22.18c1.13,1.2,2.43,2.21,3.88,3Z"/>
  <polygon class="cls-1" points="137.48 39.69 140.88 39.69 140.88 23.9 146.24 23.9 146.24 21.05 132.16 21.05 132.16 23.9 137.48 23.9 137.48 39.69"/>
  <path class="cls-1" d="M97.89,38.18c1.05-.92,1.78-2.22,1.78-3.87,0-2.54-1.8-4.09-3.76-4.67,2.02-.75,3.09-2.3,3.09-4.01,0-1.6-.77-2.82-1.93-3.51-1.24-.86-2.82-1.18-5.31-1.18-1.93,0-3.89.19-4.97.41v18.31c.88.11,2.29.24,4.17.24,3.43,0,5.61-.58,6.94-1.7ZM90.15,23.57c.36-.08.94-.13,1.94-.13,2.15,0,3.48.8,3.48,2.57,0,1.57-1.3,2.68-3.67,2.68h-1.75v-5.12ZM90.15,31.15h1.68c2.36,0,4.26.88,4.26,3.06,0,2.3-1.96,3.1-4.14,3.1-.77,0-1.36,0-1.8-.08v-6.08Z"/>
  <path class="cls-1" d="M126.65,30.82c1.76-.61,3.4-2.24,3.4-4.65,0-1.6-.58-2.9-1.6-3.76-1.27-1.05-3.08-1.48-5.75-1.48-1.96,0-3.85.16-5.15.41v18.36h3.38v-7.66h1.71c1.93.06,2.8.83,3.35,3.27.5,2.32.97,3.84,1.25,4.39h3.48c-.36-.71-.86-2.87-1.47-5.19-.44-1.8-1.24-3.1-2.59-3.68ZM122.94,29.54h-2.01v-5.89c.33-.08,1.02-.17,2.1-.17,2.22,0,3.63.97,3.63,2.99,0,1.85-1.41,3.07-3.71,3.07Z"/>
  <path class="cls-1" d="M159.71,21.05l-2.24,4.79c-.63,1.35-1.16,2.51-1.66,3.7-.53-1.28-1-2.32-1.63-3.7l-2.21-4.79h-3.9l5.88,10.87v7.76h3.41v-7.85l6.2-10.79h-3.85Z"/>
  <rect class="cls-1" x="79.28" y="21.05" width="3.4" height="18.63"/>
  <polygon class="cls-1" points="75.84 36.84 68.19 36.84 68.19 21.05 64.78 21.05 64.78 39.69 75.84 39.69 75.84 36.84"/>
  <polygon class="cls-1" points="114.04 36.9 106.2 36.9 106.2 31.43 113.22 31.43 113.22 28.66 106.2 28.66 106.2 23.85 113.64 23.85 113.64 21.05 102.79 21.05 102.79 39.69 114.04 39.69 114.04 36.9"/>
  <g>
    <path class="cls-1" d="M65.05,50.62c.44.25,1.1.47,1.79.47.87,0,1.35-.41,1.35-1.01,0-.56-.37-.89-1.31-1.23-1.22-.44-1.99-1.08-1.99-2.15,0-1.21,1.01-2.13,2.61-2.13.8,0,1.39.18,1.78.37l-.33,1.08c-.26-.14-.78-.35-1.47-.35-.85,0-1.23.46-1.23.89,0,.57.43.83,1.41,1.22,1.28.48,1.91,1.13,1.91,2.19,0,1.18-.9,2.22-2.81,2.22-.78,0-1.59-.23-1.99-.47l.3-1.12Z"/>
    <path class="cls-1" d="M71.99,45.38v1.37h1.28v1.01h-1.28v2.36c0,.65.18.99.69.99.25,0,.37-.02.53-.07l.02,1.03c-.2.08-.55.14-.97.14-.49,0-.91-.17-1.16-.45-.28-.31-.42-.79-.42-1.49v-2.51h-.77v-1.01h.77v-.99l1.31-.38Z"/>
    <path class="cls-1" d="M78.38,50.81c0,.48.02.95.08,1.28h-1.22l-.09-.59h-.03c-.33.42-.89.71-1.58.71-1.07,0-1.68-.78-1.68-1.59,0-1.35,1.19-2.03,3.17-2.02v-.09c0-.35-.14-.93-1.08-.93-.53,0-1.07.16-1.44.39l-.26-.88c.39-.24,1.08-.47,1.93-.47,1.71,0,2.2,1.09,2.2,2.25v1.93ZM77.06,49.48c-.95-.02-1.86.19-1.86,1,0,.53.34.77.77.77.54,0,.93-.35,1.05-.73.03-.1.04-.21.04-.3v-.73Z"/>
    <path class="cls-1" d="M79.65,48.34c0-.61-.01-1.13-.04-1.59h1.18l.07.8h.03c.23-.42.81-.92,1.7-.92.93,0,1.9.6,1.9,2.29v3.17h-1.35v-3.01c0-.77-.29-1.35-1.02-1.35-.54,0-.91.38-1.05.79-.04.12-.05.28-.05.44v3.14h-1.36v-3.75Z"/>
    <path class="cls-1" d="M90.72,44.31v6.28c0,.55.02,1.14.04,1.5h-1.21l-.05-.84h-.02c-.32.59-.96.96-1.74.96-1.27,0-2.28-1.08-2.28-2.73-.01-1.79,1.11-2.85,2.39-2.85.73,0,1.26.31,1.5.7h.02v-3.02h1.35ZM89.38,48.98c0-.11-.01-.24-.03-.35-.12-.53-.55-.95-1.16-.95-.87,0-1.35.77-1.35,1.76s.48,1.69,1.34,1.69c.55,0,1.03-.37,1.16-.95.03-.12.04-.25.04-.39v-.8Z"/>
    <path class="cls-1" d="M96.18,50.81c0,.48.02.95.08,1.28h-1.22l-.09-.59h-.03c-.33.42-.89.71-1.58.71-1.07,0-1.68-.78-1.68-1.59,0-1.35,1.19-2.03,3.17-2.02v-.09c0-.35-.14-.93-1.08-.93-.53,0-1.07.16-1.44.39l-.26-.88c.39-.24,1.08-.47,1.93-.47,1.71,0,2.2,1.09,2.2,2.25v1.93ZM94.86,49.48c-.95-.02-1.86.19-1.86,1,0,.53.34.77.77.77.54,0,.93-.35,1.05-.73.03-.1.04-.21.04-.3v-.73Z"/>
    <path class="cls-1" d="M97.45,48.47c0-.72-.01-1.24-.04-1.72h1.17l.04,1.02h.04c.26-.76.89-1.14,1.46-1.14.13,0,.21.01.32.03v1.27c-.11-.02-.23-.04-.39-.04-.65,0-1.08.42-1.21,1.02-.02.12-.04.26-.04.42v2.76h-1.35v-3.62Z"/>
    <path class="cls-1" d="M106.17,44.31v6.28c0,.55.02,1.14.04,1.5h-1.21l-.05-.84h-.02c-.32.59-.96.96-1.74.96-1.27,0-2.28-1.08-2.28-2.73-.01-1.79,1.11-2.85,2.39-2.85.73,0,1.26.31,1.5.7h.02v-3.02h1.35ZM104.82,48.98c0-.11-.01-.24-.03-.35-.12-.53-.55-.95-1.16-.95-.87,0-1.35.77-1.35,1.76s.48,1.69,1.34,1.69c.55,0,1.03-.37,1.16-.95.03-.12.04-.25.04-.39v-.8Z"/>
    <path class="cls-1" d="M109.71,44.8c.43-.09,1.21-.15,1.96-.15,1,0,1.61.12,2.12.47.46.27.77.76.77,1.38,0,.68-.43,1.3-1.23,1.6v.02c.78.2,1.49.81,1.49,1.83,0,.66-.28,1.17-.71,1.52-.53.46-1.39.69-2.74.69-.75,0-1.32-.06-1.65-.1v-7.27ZM111.05,47.72h.69c.93,0,1.46-.44,1.46-1.06,0-.69-.53-1.01-1.38-1.01-.39,0-.63.02-.77.05v2.02ZM111.05,51.12c.18.03.41.03.71.03.87,0,1.63-.33,1.63-1.24,0-.85-.75-1.21-1.68-1.21h-.67v2.41Z"/>
    <path class="cls-1" d="M120.03,50.81c0,.48.02.95.08,1.28h-1.22l-.09-.59h-.03c-.33.42-.89.71-1.58.71-1.07,0-1.68-.78-1.68-1.59,0-1.35,1.19-2.03,3.17-2.02v-.09c0-.35-.14-.93-1.08-.93-.53,0-1.07.16-1.44.39l-.26-.88c.39-.24,1.08-.47,1.93-.47,1.71,0,2.2,1.09,2.2,2.25v1.93ZM118.72,49.48c-.95-.02-1.86.19-1.86,1,0,.53.34.77.77.77.54,0,.93-.35,1.05-.73.03-.1.04-.21.04-.3v-.73Z"/>
    <path class="cls-1" d="M121.31,48.34c0-.61-.01-1.13-.04-1.59h1.18l.07.8h.03c.23-.42.81-.92,1.7-.92.93,0,1.9.6,1.9,2.29v3.17h-1.35v-3.01c0-.77-.29-1.35-1.02-1.35-.54,0-.91.38-1.05.79-.04.12-.05.28-.05.44v3.14h-1.36v-3.75Z"/>
    <path class="cls-1" d="M128.78,49.1h.02c.13-.21.28-.44.43-.62l1.29-1.72h1.62l-1.97,2.18,2.26,3.16h-1.65l-1.53-2.36-.46.54v1.82h-1.35v-7.78h1.35v4.79Z"/>
    <path class="cls-1" d="M141.03,51.75c-.47.18-1.39.42-2.38.42-1.25,0-2.19-.32-2.89-.99-.66-.63-1.04-1.6-1.03-2.72,0-2.33,1.67-3.84,4.11-3.84.91,0,1.62.19,1.96.35l-.3,1.09c-.41-.18-.9-.32-1.68-.32-1.58,0-2.69.93-2.69,2.65s1.03,2.67,2.56,2.67c.48,0,.84-.07,1.02-.15v-1.84h-1.3v-1.06h2.61v3.74Z"/>
    <path class="cls-1" d="M142.3,48.47c0-.72-.01-1.24-.04-1.72h1.17l.04,1.02h.04c.26-.76.89-1.14,1.46-1.14.13,0,.21.01.32.03v1.27c-.11-.02-.23-.04-.39-.04-.65,0-1.08.42-1.21,1.02-.02.12-.04.26-.04.42v2.76h-1.35v-3.62Z"/>
    <path class="cls-1" d="M151.15,49.37c0,1.96-1.38,2.84-2.74,2.84-1.51,0-2.67-1.04-2.67-2.75s1.15-2.83,2.76-2.83,2.65,1.12,2.65,2.74ZM147.13,49.43c0,1.03.5,1.81,1.33,1.81.77,0,1.3-.76,1.3-1.83,0-.83-.37-1.79-1.29-1.79s-1.34.92-1.34,1.81Z"/>
    <path class="cls-1" d="M156.92,50.49c0,.64.02,1.16.04,1.6h-1.18l-.07-.81h-.02c-.23.38-.76.93-1.71.93s-1.86-.58-1.86-2.32v-3.14h1.35v2.9c0,.89.29,1.46,1,1.46.54,0,.89-.38,1.03-.72.04-.12.08-.26.08-.42v-3.22h1.35v3.74Z"/>
    <path class="cls-1" d="M158.23,48.53c0-.7-.02-1.27-.04-1.78h1.18l.07.82h.02c.39-.6,1.02-.94,1.83-.94,1.23,0,2.25,1.05,2.25,2.72,0,1.93-1.22,2.86-2.43,2.86-.67,0-1.23-.28-1.5-.71h-.02v2.76h-1.35v-5.73ZM159.58,49.85c0,.13.01.25.04.37.13.55.61.94,1.18.94.85,0,1.36-.71,1.36-1.77,0-.94-.46-1.71-1.33-1.71-.56,0-1.07.41-1.21,1-.03.11-.05.23-.05.34v.82Z"/>
  </g>
</svg>