<svg xmlns="http://www.w3.org/2000/svg" width="32" height="29" viewBox="0 0 32 29" fill="none">
<circle cx="13.5" cy="13.7725" r="10" fill="#FFE7BC"/>
<path d="M12.7909 12.9058C12.7909 12.3903 13.2495 11.9725 13.8152 11.9725L30.203 11.9725C30.7687 11.9725 31.2273 12.3903 31.2273 12.9058V15.2391C31.2273 15.7546 30.7687 16.1725 30.203 16.1725H21.9005C21.4442 16.1725 21.2157 16.6751 21.5384 16.9691L30.503 25.1381C30.903 25.5026 30.903 26.0935 30.503 26.458L28.6874 28.1125C28.2874 28.477 27.6389 28.477 27.2389 28.1125L18.2742 19.9435C17.9516 19.6495 17.4 19.8577 17.4 20.2735V27.8391C17.4 28.3546 16.9414 28.7725 16.3758 28.7725H13.8152C13.2495 28.7725 12.7909 28.3546 12.7909 27.8391V12.9058Z" fill="#666"/>
<path d="M15.0827 0.772461C14.6655 0.772461 14.3273 1.08064 14.3273 1.46079V6.38412C14.3273 6.76428 14.6655 7.07245 15.0827 7.07245H18.181C18.5982 7.07245 18.9364 6.76428 18.9364 6.38412V1.46079C18.9364 1.08064 18.5982 0.772461 18.181 0.772461H15.0827Z" fill="#666"/>
<path d="M6.65826 13.3725C7.07544 13.3725 7.41364 13.6806 7.41364 14.0608V16.8841C7.41364 17.2643 7.07544 17.5725 6.65826 17.5725H1.25538C0.838194 17.5725 0.5 17.2643 0.5 16.8841V14.0608C0.5 13.6806 0.838194 13.3725 1.25538 13.3725H6.65826Z" fill="#666"/>
<path d="M10.3402 6.76482C10.7205 7.11143 10.5921 7.7045 10.1426 7.97367C9.45047 8.38806 8.85738 8.92852 8.40262 9.5592C8.10723 9.96886 7.4564 10.0858 7.07603 9.73923L2.5705 5.6336C2.2755 5.36479 2.2755 4.92896 2.5705 4.66015L4.76635 2.65919C5.06135 2.39038 5.53963 2.39038 5.83462 2.65919L10.3402 6.76482Z" fill="#666"/>
</svg>