<svg width="31" height="28" viewBox="0 0 31 28" fill="none" xmlns="http://www.w3.org/2000/svg">
<path d="M12.2909 12.1333C12.2909 11.6179 12.7495 11.2 13.3152 11.2L29.703 11.2C30.2687 11.2 30.7273 11.6179 30.7273 12.1333V14.4667C30.7273 14.9821 30.2687 15.4 29.703 15.4H21.4005C20.9442 15.4 20.7157 15.9027 21.0384 16.1966L30.003 24.3656C30.403 24.7301 30.403 25.3211 30.003 25.6856L28.1874 27.34C27.7874 27.7045 27.1389 27.7045 26.7389 27.34L17.7742 19.1711C17.4516 18.8771 16.9 19.0853 16.9 19.501V27.0667C16.9 27.5821 16.4414 28 15.8758 28H13.3152C12.7495 28 12.2909 27.5821 12.2909 27.0667V12.1333Z" fill="#666"/>
<path d="M14.5827 0C14.1655 0 13.8273 0.308177 13.8273 0.688333V5.61166C13.8273 5.99182 14.1655 6.29999 14.5827 6.29999H17.681C18.0982 6.29999 18.4364 5.99182 18.4364 5.61166V0.688333C18.4364 0.308177 18.0982 0 17.681 0H14.5827Z" fill="#666"/>
<path d="M6.15826 12.6C6.57544 12.6 6.91364 12.9082 6.91364 13.2883V16.1117C6.91364 16.4918 6.57544 16.8 6.15826 16.8H0.755378C0.338194 16.8 0 16.4918 0 16.1117V13.2883C0 12.9082 0.338194 12.6 0.755379 12.6H6.15826Z" fill="#666"/>
<path d="M9.84015 5.99236C10.2205 6.33897 10.0921 6.93204 9.64258 7.2012C8.95047 7.6156 8.35738 8.15606 7.90262 8.78674C7.60723 9.1964 6.9564 9.31338 6.57603 8.96677L2.0705 4.86114C1.7755 4.59233 1.7755 4.1565 2.0705 3.88769L4.26635 1.88673C4.56135 1.61792 5.03963 1.61792 5.33462 1.88673L9.84015 5.99236Z" fill="#666"/>
</svg>
