<svg xmlns="http://www.w3.org/2000/svg" width="33" height="32" viewBox="0 0 33 32" fill="none">
    <g clip-path="url(#clip0_1_1470)">
      <circle cx="14.5" cy="15" r="10" fill="#FFE7BC"/>
      <path d="M13.7909 14.1333C13.7909 13.6179 14.2495 13.2 14.8152 13.2L31.203 13.2C31.7687 13.2 32.2273 13.6179 32.2273 14.1333V16.4667C32.2273 16.9821 31.7687 17.4 31.203 17.4H22.9005C22.4442 17.4 22.2157 17.9027 22.5384 18.1966L31.503 26.3656C31.903 26.7301 31.903 27.3211 31.503 27.6856L29.6874 29.34C29.2874 29.7045 28.6389 29.7045 28.2389 29.34L19.2742 21.1711C18.9516 20.8771 18.4 21.0853 18.4 21.501V29.0667C18.4 29.5821 17.9414 30 17.3758 30H14.8152C14.2495 30 13.7909 29.5821 13.7909 29.0667V14.1333Z" fill="#666"/>
      <path d="M16.0827 2C15.6655 2 15.3273 2.30818 15.3273 2.68833V7.61166C15.3273 7.99182 15.6655 8.29999 16.0827 8.29999H19.181C19.5982 8.29999 19.9364 7.99182 19.9364 7.61166V2.68833C19.9364 2.30818 19.5982 2 19.181 2H16.0827Z" fill="#666"/>
      <path d="M7.65826 14.6C8.07544 14.6 8.41364 14.9082 8.41364 15.2883V18.1117C8.41364 18.4918 8.07544 18.8 7.65826 18.8H2.25538C1.83819 18.8 1.5 18.4918 1.5 18.1117V15.2883C1.5 14.9082 1.83819 14.6 2.25538 14.6H7.65826Z" fill="#666"/>
      <path d="M11.3402 7.99236C11.7205 8.33897 11.5921 8.93204 11.1426 9.2012C10.4505 9.6156 9.85738 10.1561 9.40262 10.7867C9.10723 11.1964 8.4564 11.3134 8.07603 10.9668L3.5705 6.86114C3.2755 6.59233 3.2755 6.1565 3.5705 5.88769L5.76635 3.88673C6.06135 3.61792 6.53963 3.61792 6.83462 3.88673L11.3402 7.99236Z" fill="#666"/>
    </g>
    <defs>
      <clipPath id="clip0_1_1470">
        <rect width="32" height="32" fill="white" transform="translate(0.5)"/>
      </clipPath>
    </defs>
  </svg>