<svg xmlns="http://www.w3.org/2000/svg" viewBox="0 0 24 24" fill="black">
    <path
        d="M6.41238 18.5174H8.27481C8.61675 18.5174 8.89563 18.2385 8.89563 17.8966C8.89563 17.5546 8.61675 17.2758 8.27481 17.2758H6.41238C5.04343 17.2758 3.92913 16.1615 3.92913 14.7925V6.72195C3.92913 5.353 5.04343 4.2387 6.41238 4.2387H16.6558C18.0247 4.2387 19.139 5.353 19.139 6.72195V7.03235C19.139 7.37429 19.4179 7.65316 19.7598 7.65316C20.1018 7.65316 20.3807 7.37429 20.3807 7.03235V6.72195C20.3807 4.66672 18.711 2.99707 16.6558 2.99707H6.41238C4.35715 2.99707 2.6875 4.66672 2.6875 6.72195V14.7925C2.6875 16.8477 4.35715 18.5174 6.41238 18.5174Z"
        fill="black" stroke="black" stroke-width="0.8" />
    <path
        d="M21.3119 20.3789V20.2237C21.3119 18.1284 20.046 16.3252 18.2394 15.5337C18.9778 14.9068 19.4495 13.972 19.4495 12.9291C19.4495 11.0448 17.9193 9.51465 16.035 9.51465C14.1507 9.51465 12.6205 11.0448 12.6205 12.9291C12.6205 14.0252 13.1419 15.0001 13.9494 15.6271C12.2483 16.4625 11.0684 18.2061 11.0684 20.2239V20.3791C11.0684 20.7211 11.3472 20.9999 11.6892 20.9999C12.0311 20.9999 12.31 20.7211 12.31 20.3791V20.2239C12.31 18.085 14.0512 16.3438 16.1901 16.3438C18.329 16.3438 20.0701 18.085 20.0701 20.2239V20.3791C20.0701 20.7211 20.349 20.9999 20.691 20.9999C21.0329 20.9999 21.3119 20.7208 21.3119 20.3789ZM16.035 15.102C14.837 15.102 13.8621 14.1271 13.8621 12.9291C13.8621 11.7312 14.837 10.7563 16.035 10.7563C17.2329 10.7563 18.2078 11.7312 18.2078 12.9291C18.2078 14.1271 17.2329 15.102 16.035 15.102Z"
        fill="black" stroke="black" stroke-width="0.8" />
</svg>